<?xml version="1.0" encoding="UTF-8"?><svg id="a" xmlns="http://www.w3.org/2000/svg" viewBox="0 0 704 16"><defs><style>.b{stroke-width:1.14px;}.b,.c,.d,.e{fill:#99840f;}.b,.d,.e{stroke:#99840f;stroke-miterlimit:10;}.d{stroke-width:2px;}.e{stroke-width:1.57px;}</style></defs><g><polygon class="c" points="4.29 7.94 47.75 7.43 91.21 7 178.14 6.46 199.88 6.32 221.61 6.27 265.07 6.18 352 6 438.93 6.18 482.39 6.27 504.12 6.31 525.86 6.45 612.79 6.99 656.25 7.43 699.71 7.94 699.71 8.06 656.25 8.57 612.79 9.01 525.86 9.55 504.12 9.69 482.39 9.73 438.93 9.82 352 10 265.07 9.82 221.61 9.73 199.88 9.68 178.14 9.54 91.21 9 47.75 8.57 4.29 8.06 4.29 7.94"/><path class="c" d="M4.51,12.51c-2.49,0-4.51-2.02-4.51-4.51S2.02,3.49,4.51,3.49s4.51,2.02,4.51,4.51-2.02,4.51-4.51,4.51Z"/><path class="c" d="M699.49,12.51c2.49,0,4.51-2.02,4.51-4.51s-2.02-4.51-4.51-4.51-4.51,2.02-4.51,4.51,2.02,4.51,4.51,4.51Z"/></g><circle class="d" cx="352" cy="8" r="7"/><circle class="e" cx="376.5" cy="8" r="5.5"/><circle class="e" cx="327.5" cy="8" r="5.5"/><circle class="b" cx="397" cy="8" r="4"/><circle class="b" cx="305" cy="8" r="4"/></svg>